# xmcd
#
# Track frame offsets:
#	150
#	18548
#	37633
#	52902
#	67699
#	84268
#	103638
#	118800
#	136649
#	150808
#	173778
#	189863
#	208613
#	223063
#	242380
#	257361
#	270458
#	284731
#	296537
#	309373
# Disc length: 4347 seconds
# Revision: 10
# Processed by: cddbd v1.5.1PL0 Copyright (c) Steve Scherf et al.
#
# Submitted via: libkcddb 0.10
#
DISCID=fc10f914
DTITLE=Various Artist - 100 Country Hits Disc 2
DYEAR=2005
DGENRE=Unknown
TTITLE0=I'm Gonna Getcha Good
TTITLE1=Landslide
TTITLE2=I'll Think Of A Reason Later
TTITLE3=Single White Female
TTITLE4=That Don't Impress Me Much
TTITLE5=I'll Still Love You More
TTITLE6=That's The Way It Is
TTITLE7=Blessed
TTITLE8=What If I Do
TTITLE9=To Be Loved By You
TTITLE10=Can't Fight The Moonlight
TTITLE11=Breathe
TTITLE12=Did I Shave My Legs For This
TTITLE13=Goodbye Earl
TTITLE14=Walking Away A Winner
TTITLE15=Mi Vida Loca (My Crazy Life)
TTITLE16=Coat Of Many Colors
TTITLE17=Stand By Your Man
TTITLE18=Rose Garden
TTITLE19=I Was Country When Country Wasn't Cool
EXTD=
EXTT0=
EXTT1=
EXTT2=
EXTT3=
EXTT4=
EXTT5=
EXTT6=
EXTT7=
EXTT8=
EXTT9=
EXTT10=
EXTT11=
EXTT12=
EXTT13=
EXTT14=
EXTT15=
EXTT16=
EXTT17=
EXTT18=
EXTT19=
PLAYORDER=
